<?xml version="1.0" encoding="UTF-8" standalone="no"?>
<!DOCTYPE svg PUBLIC "-//W3C//DTD SVG 1.1//EN" "http://www.w3.org/Graphics/SVG/1.1/DTD/svg11.dtd">
<svg width="100%" height="100%" viewBox="0 0 1067 820" version="1.1" xmlns="http://www.w3.org/2000/svg" xmlns:xlink="http://www.w3.org/1999/xlink" xml:space="preserve" xmlns:serif="http://www.serif.com/" style="fill-rule:evenodd;clip-rule:evenodd;stroke-linejoin:round;stroke-miterlimit:2;">
    <g transform="matrix(1,0,0,1,0,1.8003)">
        <path d="M962.551,394.71L946.672,466.13L933.782,524.07L923.508,570.28L910.626,628.22L868.531,817.51L346.914,576.48L308.572,558.76L260.039,536.33L221.683,518.61L175.551,497.29L201.704,459.24L223.452,427.6L250.965,387.57L272.707,355.95L517.369,0L776.55,229.8L822.703,270.72L859.505,303.35L905.666,344.27L962.551,394.71Z" style="fill:rgb(242,242,242);fill-rule:nonzero;"/>
    </g>
    <g transform="matrix(1,0,0,1,-66.9471,-36.0999)">
        <path d="M271.301,642.731C236.421,623.287 214.707,596.74 206.762,563.829C200.862,539.393 202.558,511.896 211.8,482.101C218.651,460.134 228.924,439.384 242.239,420.617C312.877,320.631 319.252,255.479 312.162,218.431C304.388,177.808 279.131,160.936 278.876,160.771L279.967,159.094C280.228,159.264 306.15,176.527 314.111,217.974C318.701,241.869 316.542,269.115 307.694,298.955C296.682,336.093 275.209,377.414 243.873,421.771C230.679,440.367 220.5,460.927 213.71,482.693C198.552,531.56 196.407,598.69 272.274,640.985L271.301,642.731Z" style="fill:rgb(47,46,65);fill-rule:nonzero;"/>
    </g>
    <g transform="matrix(1,0,0,1,-66.9471,-36.0999)">
        <path d="M288.074,642.731C322.954,623.287 344.668,596.74 352.613,563.829C358.513,539.393 356.817,511.896 347.575,482.101C340.724,460.134 330.451,439.384 317.136,420.617C246.498,320.631 240.122,255.479 247.213,218.431C254.987,177.808 280.244,160.936 280.498,160.771L279.408,159.094C279.147,159.264 253.224,176.527 245.264,217.974C240.674,241.869 242.833,269.115 251.681,298.955C262.693,336.093 284.165,377.414 315.502,421.771C328.696,440.367 338.875,460.927 345.665,482.693C360.823,531.56 362.968,598.69 287.1,640.985L288.074,642.731Z" style="fill:rgb(47,46,65);fill-rule:nonzero;"/>
    </g>
    <g transform="matrix(1,0,0,1,-66.9471,-36.0999)">
        <path d="M1048.3,558.731C1013.42,539.287 991.707,512.74 983.762,479.829C977.862,455.393 979.558,427.896 988.8,398.101C995.651,376.134 1005.92,355.384 1019.24,336.617C1089.88,236.631 1096.25,171.479 1089.16,134.431C1081.39,93.808 1056.13,76.936 1055.88,76.771L1056.97,75.094C1057.23,75.264 1083.15,92.527 1091.11,133.974C1095.7,157.869 1093.54,185.115 1084.69,214.955C1073.68,252.093 1052.21,293.414 1020.87,337.771C1007.68,356.367 997.5,376.927 990.71,398.693C975.552,447.56 973.407,514.69 1049.27,556.985L1048.3,558.731Z" style="fill:rgb(47,46,65);fill-rule:nonzero;"/>
    </g>
    <g transform="matrix(1,0,0,1,-66.9471,-36.0999)">
        <path d="M1065.07,558.731C1099.95,539.287 1121.67,512.74 1129.61,479.829C1135.51,455.393 1133.82,427.896 1124.58,398.101C1117.72,376.134 1107.45,355.384 1094.14,336.617C1023.5,236.631 1017.12,171.479 1024.21,134.431C1031.99,93.808 1057.24,76.936 1057.5,76.771L1056.41,75.094C1056.15,75.264 1030.22,92.527 1022.26,133.974C1017.67,157.869 1019.83,185.115 1028.68,214.955C1039.69,252.093 1061.16,293.414 1092.5,337.771C1105.7,356.367 1115.88,376.927 1122.66,398.693C1137.82,447.56 1139.97,514.69 1064.1,556.985L1065.07,558.731Z" style="fill:rgb(47,46,65);fill-rule:nonzero;"/>
    </g>
    <g transform="matrix(1,0,0,1,-66.9471,-36.0999)">
        <path d="M534.762,337.845C508.555,293.563 456.707,291.5 456.707,291.5C456.707,291.5 406.184,285.039 373.774,352.48C343.565,415.341 301.872,476.034 367.061,490.75L378.836,454.1L386.129,493.478C395.41,494.146 404.722,494.305 414.021,493.955C483.833,491.701 550.318,494.614 548.178,469.563C545.332,436.26 559.978,380.453 534.762,337.845Z" style="fill:rgb(47,46,65);fill-rule:nonzero;"/>
    </g>
    <g transform="matrix(1,0,0,1,-66.9471,-36.0999)">
        <path d="M427.194,430.522C436.225,450.498 441.919,474.308 445.319,500.756L517.818,496.225C501.15,472.606 495.616,445.496 501.959,414.663L427.194,430.522Z" style="fill:rgb(255,184,184);fill-rule:nonzero;"/>
    </g>
    <g transform="matrix(1,0,0,1,-66.9471,-36.0999)">
        <path d="M427.194,430.522C436.225,450.498 441.919,474.308 445.319,500.756L517.818,496.225C501.15,472.606 495.616,445.496 501.959,414.663L427.194,430.522Z" style="fill-opacity:0.2;fill-rule:nonzero;"/>
    </g>
    <g transform="matrix(1,0,0,1,-66.9471,-36.0999)">
        <path d="M90.819,810.844C90.819,810.844 53.296,830.943 72.337,848.102C91.378,865.262 116.53,825.388 116.53,825.388L90.819,810.844Z" style="fill:rgb(255,184,184);fill-rule:nonzero;"/>
    </g>
    <g transform="matrix(1,0,0,1,0,1.8003)">
        <path d="M482.591,714.334L482.005,741.792L480.754,801.122L480.754,801.132L480.39,818.314L240.438,818.314L250.19,764.163L250.2,764.123L258.932,715.656L262.829,693.951L262.829,693.941L459.937,666.755L482.591,714.334Z" style="fill:rgb(47,46,65);fill-rule:nonzero;"/>
    </g>
    <g transform="matrix(1,0,0,1,-66.9471,-36.0999)">
        <path d="M549.537,752.237L548.947,779.696C479.212,777.906 371.121,761.073 325.877,753.551L329.774,731.847L526.881,704.66L549.537,752.237Z" style="fill:rgb(63,61,86);fill-rule:nonzero;"/>
    </g>
    <g transform="matrix(1,0,0,1,0,1.8003)">
        <circle cx="395.364" cy="355.24" r="56.64" style="fill:rgb(255,184,184);"/>
    </g>
    <g transform="matrix(1,0,0,1,-66.9471,-36.0999)">
        <path d="M571.06,782.823C571.06,782.823 577.857,843.994 537.076,839.463L530.279,778.292L494.029,742.042L392.077,739.776L317.313,810.01C317.313,810.01 315.047,737.511 324.11,730.714C333.172,723.917 353.562,708.058 353.562,708.058L353.562,696.73L292.391,572.122C292.391,572.122 328.641,497.357 358.094,495.092L396.609,492.826C396.609,492.826 410.202,486.029 410.202,483.764C410.202,481.498 407.937,463.373 419.265,467.905C419.265,467.905 420.284,444.66 432.224,451.751C432.224,451.751 469.81,481.204 507.963,453.042C507.963,453.042 525.748,449.78 523.482,458.842C521.217,467.905 523.482,474.701 528.013,474.701C532.545,474.701 552.935,481.498 552.935,486.029C552.935,487.004 554.408,496.383 556.718,510.498L556.718,510.521C565.124,561.972 584.653,676.34 584.653,676.34C584.653,676.34 605.044,705.792 571.06,782.823Z" style="fill-rule:nonzero;"/>
    </g>
    <g transform="matrix(1,0,0,1,-66.9471,-36.0999)">
        <path d="M308.25,560.794L292.391,572.122L147.393,757.901L70.363,819.072C70.363,819.072 113.409,812.276 104.347,848.525L369.422,696.73L308.25,560.794Z" style="fill-rule:nonzero;"/>
    </g>
    <g transform="matrix(1,0,0,1,-66.9471,-36.0999)">
        <path d="M556.718,510.498L556.718,510.521C553.705,528.238 455.514,524.545 441.921,524.545C428.327,524.545 416.999,522.279 403.405,513.217C389.812,504.154 396.609,492.826 396.609,492.826C396.609,492.826 408.183,484.01 408.183,481.745C408.183,479.479 405.918,461.354 417.246,465.886C417.246,465.886 418.265,442.641 430.205,449.732C430.205,449.732 469.81,481.204 507.963,453.042C507.963,453.042 525.748,449.78 523.482,458.842C521.217,467.905 523.482,474.701 528.013,474.701C532.545,474.701 552.935,481.498 552.935,486.029C552.935,487.004 554.408,496.383 556.718,510.498Z" style="fill:rgb(63,61,86);fill-rule:nonzero;"/>
    </g>
    <g transform="matrix(1,0,0,1,-66.9471,-36.0999)">
        <path d="M545.005,425.991C545.005,425.991 526.881,387.476 508.756,405.601C490.631,423.726 529.146,450.913 529.146,450.913L545.005,425.991Z" style="fill:rgb(255,184,184);fill-rule:nonzero;"/>
    </g>
    <g transform="matrix(1,0,0,1,-66.9471,-36.0999)">
        <path d="M545.005,416.929C545.005,416.929 517.018,452.298 508.356,455.004C508.356,455.004 533.677,555.13 565.396,582.317L583.521,675.207C583.521,675.207 660.551,643.489 642.426,591.38C642.245,590.859 642.064,590.341 641.885,589.826C626.751,546.431 605.866,505.26 579.787,467.418L545.005,416.929Z" style="fill-rule:nonzero;"/>
    </g>
    <g transform="matrix(1,0,0,1,0,1.8003)">
        <path d="M463.102,483.933L518.839,637.307L498.449,544.417L463.102,483.933Z" style="fill-opacity:0.2;fill-rule:nonzero;"/>
    </g>
    <g transform="matrix(1,0,0,1,0,1.8003)">
        <path d="M456.229,295.676L405.005,268.845L334.268,279.821L319.632,344.46L356.064,343.059L366.242,319.311L366.242,342.668L383.052,342.021L392.809,304.213L398.907,344.46L458.668,343.241L456.229,295.676Z" style="fill:rgb(47,46,65);fill-rule:nonzero;"/>
    </g>
    <g transform="matrix(1,0,0,1,-66.9471,-36.0999)">
        <path d="M1007.08,682.238L1036.14,785.909C1036.14,785.909 1030.15,877.736 1058.1,859.77C1086.7,841.384 1076.06,763.95 1076.06,763.95L1059.31,670.944L1007.08,682.238Z" style="fill:rgb(160,97,106);fill-rule:nonzero;"/>
    </g>
    <g transform="matrix(1,0,0,1,-66.9471,-36.0999)">
        <path d="M1022.61,391.415L1046.61,415.415L1046.61,529.768C1046.61,529.768 1060.72,550.944 1057.9,556.591C1055.08,562.238 1052.25,562.238 1055.08,566.473C1057.9,570.709 1060.72,573.532 1057.9,576.356C1055.08,579.179 1055.08,586.238 1057.9,589.061C1060.72,591.885 1066.37,596.12 1062.13,600.356C1057.9,604.591 1052.25,601.767 1057.9,617.297C1063.55,632.826 1073.43,637.061 1070.61,642.708C1067.78,648.355 1067.78,662.473 1067.78,662.473L1007.08,670.944L994.37,511.415L1022.61,391.415Z" style="fill:rgb(208,205,225);fill-rule:nonzero;"/>
    </g>
    <g transform="matrix(1,0,0,1,0,1.8003)">
        <path d="M1003.66,623.161L933.07,625.985L935.893,655.632L998.011,644.338L1003.66,623.161Z" style="fill:rgb(63,61,86);fill-rule:nonzero;"/>
    </g>
    <g transform="matrix(1,0,0,1,0,1.8003)">
        <path d="M809.541,205.986L801.07,290.691L887.188,303.397L893.541,254.692L899.894,205.986L809.541,205.986Z" style="fill:rgb(160,97,106);fill-rule:nonzero;"/>
    </g>
    <g transform="matrix(1,0,0,1,0,1.8003)">
        <path d="M809.541,205.527L801.07,290.233L887.188,302.939L899.894,205.527L809.541,205.527Z" style="fill-opacity:0.1;fill-rule:nonzero;"/>
    </g>
    <g transform="matrix(1,0,0,1,-66.9471,-36.0999)">
        <path d="M689.43,646.944L737.43,750.002C737.43,750.002 745.9,798.002 758.606,799.414C771.312,800.826 784.018,750.002 784.018,750.002L767.077,723.179L747.312,646.944L689.43,646.944Z" style="fill:rgb(160,97,106);fill-rule:nonzero;"/>
    </g>
    <g transform="matrix(1,0,0,1,-66.9471,-36.0999)">
        <path d="M1018,857.214L746.635,857.214C748.785,823.203 750.138,802.236 750.138,802.236L753.742,796.562L771.216,769.103L783.694,749.498L788.045,742.654L789.66,740.12L806.751,737.001L983.074,704.827C985.99,717.886 990.117,730.644 995.4,742.937C996.601,745.672 997.893,748.408 999.276,751.114C1003.71,759.765 1009.12,767.962 1015.55,773.999C1017.01,775.372 1018.07,779.037 1018.76,784.67C1020.46,798.47 1019.97,824.132 1018,857.214Z" style="fill:rgb(47,46,65);fill-rule:nonzero;"/>
    </g>
    <g transform="matrix(1,0,0,1,0,1.8003)">
        <circle cx="856.835" cy="165.751" r="67.765" style="fill:rgb(160,97,106);"/>
    </g>
    <g transform="matrix(1,0,0,1,-66.9471,-36.0999)">
        <path d="M772.724,342.003L762.841,336.356C762.841,336.356 719.077,366.003 704.959,432.356C690.841,498.709 680.959,515.65 680.959,515.65C680.959,515.65 666.842,518.473 676.724,528.356C686.606,538.238 686.606,536.826 678.136,542.473C669.665,548.12 664.018,536.826 669.665,548.12C675.312,559.414 682.371,556.591 676.724,563.65C671.077,570.709 661.194,570.709 666.842,576.356C672.489,582.003 661.195,594.709 668.253,600.356C675.312,606.003 678.136,607.414 678.136,617.297C678.092,623.064 679.048,628.796 680.959,634.238L754.371,634.238C754.371,634.238 740.253,607.414 744.488,601.767C748.724,596.12 750.135,590.473 747.312,587.65C744.488,584.826 736.018,590.473 744.488,583.414C752.959,576.356 755.782,580.591 752.959,572.12C750.135,563.65 744.488,567.885 750.135,563.65C755.782,559.415 760.018,560.826 757.194,556.591C754.371,552.356 748.724,552.356 754.371,549.532C760.018,546.709 764.253,549.532 762.841,542.473C761.429,535.415 760.018,538.238 762.841,535.415C765.665,532.591 795.312,436.591 795.312,433.768C795.312,430.944 772.724,342.003 772.724,342.003Z" style="fill:rgb(208,205,225);fill-rule:nonzero;"/>
    </g>
    <g transform="matrix(1,0,0,1,0,1.8003)">
        <path d="M691.659,590.691L602.718,596.338L625.306,617.514L687.424,618.926L691.659,590.691Z" style="fill:rgb(63,61,86);fill-rule:nonzero;"/>
    </g>
    <g transform="matrix(1,0,0,1,-66.9471,-36.0999)">
        <path d="M784.018,734.473L765.665,768.355C765.665,768.355 820.723,775.414 840.488,782.473C860.253,789.532 911.076,799.414 911.076,799.414L923.782,750.002L784.018,734.473Z" style="fill:rgb(63,61,86);fill-rule:nonzero;"/>
    </g>
    <g transform="matrix(1,0,0,1,0,1.8003)">
        <path d="M878.011,712.102L893.541,758.69L955.658,745.984L948.599,702.22L878.011,712.102Z" style="fill:rgb(63,61,86);fill-rule:nonzero;"/>
    </g>
    <g transform="matrix(1,0,0,1,-66.9471,-36.0999)">
        <path d="M970.37,294.003C970.37,294.003 966.135,291.18 956.252,296.827C946.37,302.474 913.9,305.298 898.37,288.356C882.841,271.415 871.547,257.298 867.312,260.121C863.076,262.945 860.253,295.415 860.253,295.415L846.135,306.709L762.841,336.356L769.9,526.944L782.606,570.709C782.606,570.709 772.724,604.591 785.429,624.356C798.135,644.12 778.371,651.179 778.371,651.179C778.371,651.179 774.135,656.826 776.959,670.944C779.782,685.061 774.135,737.296 774.135,737.296C774.135,737.296 894.135,790.943 1019.78,744.355L1005.66,690.708L998.605,570.709C998.605,570.709 1005.66,550.944 1004.25,542.473C1002.84,534.003 1046.61,415.415 1046.61,415.415C1046.61,415.415 1039.55,356.121 1002.84,343.415C966.135,330.709 960.488,318.003 960.488,318.003C960.488,318.003 977.429,299.65 970.37,294.003Z" style="fill:rgb(208,205,225);fill-rule:nonzero;"/>
    </g>
    <g transform="matrix(1,0,0,1,-66.9471,-36.0999)">
        <path d="M855.548,212.331C855.548,212.331 848.511,201.776 851.217,190.409C852.834,183.955 853.473,177.294 853.112,170.651C852.75,164.007 858.795,152.246 864.479,141.962C870.163,131.677 867.456,127.346 885.319,124.098C903.183,120.851 895.875,97.574 942.969,122.745C946.211,127.272 951.888,129.415 957.313,128.158C967.057,126.264 970.575,139.796 970.575,139.796C970.575,139.796 977.071,136.007 979.507,141.42C981.943,146.833 999.311,138.171 999.311,174.71C999.311,211.248 979.547,243.886 979.547,243.886C979.547,243.886 980.995,182.424 948.788,176.199C916.58,169.974 881.936,151.84 873.546,175.117C865.156,198.393 855.548,212.331 855.548,212.331Z" style="fill:rgb(47,46,65);fill-rule:nonzero;"/>
    </g>
    <g transform="matrix(1,0,0,1,0,1.8003)">
        <ellipse cx="913.305" cy="180.574" rx="6.353" ry="8.471" style="fill:rgb(160,97,106);"/>
    </g>
</svg>
